<svg version="1.0" xmlns="http://www.w3.org/2000/svg">
    <g transform="translate(0.000000,512.000000) scale(0.100000,-0.100000)" fill="#fff" stroke="none">
        <path d="M0 2560 l0 -2560 2560 0 2560 0 0 2560 0 2560 -2560 0 -2560 0 0
-2560z m3137 1104 c100 -33 144 -87 198 -238 l35 -96 -88 0 -88 0 -22 68 c-37
115 -73 132 -274 132 l-128 0 0 75 0 75 160 0 c120 0 171 -4 207 -16z m-913
-136 c9 -33 -31 -64 -101 -78 -99 -20 -233 -51 -233 -55 0 -2 4 -15 10 -29
l10 -26 -90 0 c-87 0 -90 1 -96 25 -6 24 -9 25 -94 25 -49 0 -91 4 -94 8 -3 5
-2 41 1 80 l6 72 337 0 338 0 6 -22z m1171 -319 c5 -15 -1 -30 -22 -53 -193
-206 -1069 -1132 -1073 -1134 -3 -1 -34 61 -67 139 l-62 142 315 320 c172 176
312 322 310 324 -2 2 -176 -1 -387 -7 -211 -7 -413 -10 -448 -8 l-64 3 -53
124 c-30 68 -56 132 -59 142 -7 21 -115 18 1222 27 380 2 382 2 388 -19z
m-1816 -290 c257 -65 468 -273 543 -534 30 -104 32 -305 4 -405 -71 -259 -268
-458 -536 -542 -97 -30 -298 -32 -400 -5 -206 57 -388 202 -484 387 -69 132
-81 188 -81 360 0 148 1 159 31 243 36 99 79 176 141 248 195 229 489 322 782
248z m2341 1 c132 -38 224 -93 330 -200 106 -105 158 -191 202 -330 19 -63 23
-96 23 -210 0 -114 -4 -147 -23 -210 -85 -269 -288 -466 -557 -536 -102 -26
-275 -25 -378 4 -269 76 -466 272 -543 541 -25 86 -26 103 -21 230 4 104 10
151 27 201 97 287 316 472 630 534 55 11 237 -4 310 -24z" />
        <path d="M1256 2754 c-267 -58 -459 -295 -460 -569 -1 -170 53 -305 169 -420
144 -145 347 -205 547 -164 93 19 210 82 281 152 118 116 177 257 177 422 0
173 -51 297 -169 416 -149 149 -341 206 -545 163z" />
        <path d="M3610 2763 c-148 -25 -299 -123 -383 -250 -119 -179 -136 -402 -45
-590 142 -292 498 -414 794 -271 49 24 92 56 149 113 123 122 175 245 175 412
0 176 -50 295 -174 418 -89 89 -167 134 -277 160 -59 14 -180 18 -239 8z" />
    </g>
</svg>